<mxfile host="Electron" modified="2023-11-24T08:36:17.675Z" agent="Mozilla/5.0 (X11; Linux x86_64) AppleWebKit/537.36 (KHTML, like Gecko) draw.io/22.1.2 Chrome/114.0.5735.289 Electron/25.9.4 Safari/537.36" etag="koaaUUUqktBifI0yB2JF" version="22.1.2" type="device">
  <diagram name="Page-1" id="Ov1hY7NAIhpf-3Ej8_Xz">
    <mxGraphModel dx="990" dy="628" grid="1" gridSize="10" guides="1" tooltips="1" connect="1" arrows="1" fold="1" page="1" pageScale="1" pageWidth="850" pageHeight="1100" math="0" shadow="0">
      <root>
        <mxCell id="0" />
        <mxCell id="1" parent="0" />
        <mxCell id="OoE9c814yCv3j-LPLBNH-1" value="&lt;font style=&quot;font-size: 23px;&quot;&gt;Exec&lt;/font&gt;" style="rounded=1;whiteSpace=wrap;html=1;fillColor=#dae8fc;strokeColor=#6c8ebf;" vertex="1" parent="1">
          <mxGeometry x="100" y="120" width="140" height="70" as="geometry" />
        </mxCell>
        <mxCell id="OoE9c814yCv3j-LPLBNH-47" value="" style="shape=flexArrow;endArrow=classic;html=1;rounded=0;endWidth=9.523809523809524;endSize=6.557142857142857;fillColor=#e1d5e7;strokeColor=#9673a6;" edge="1" parent="1">
          <mxGeometry width="50" height="50" relative="1" as="geometry">
            <mxPoint x="180" y="210" as="sourcePoint" />
            <mxPoint x="200" y="280" as="targetPoint" />
          </mxGeometry>
        </mxCell>
        <mxCell id="OoE9c814yCv3j-LPLBNH-48" value="Exec" style="text;html=1;strokeColor=none;fillColor=none;align=center;verticalAlign=middle;whiteSpace=wrap;rounded=0;" vertex="1" parent="1">
          <mxGeometry x="170" y="220" width="90" height="30" as="geometry" />
        </mxCell>
        <mxCell id="OoE9c814yCv3j-LPLBNH-57" value="" style="rounded=0;whiteSpace=wrap;html=1;" vertex="1" parent="1">
          <mxGeometry x="139" y="295" width="211" height="160" as="geometry" />
        </mxCell>
        <mxCell id="OoE9c814yCv3j-LPLBNH-58" value="" style="endArrow=none;dashed=1;html=1;rounded=0;exitX=0;exitY=0.25;exitDx=0;exitDy=0;entryX=1;entryY=0.25;entryDx=0;entryDy=0;" edge="1" parent="1">
          <mxGeometry width="50" height="50" relative="1" as="geometry">
            <mxPoint x="139" y="334.5" as="sourcePoint" />
            <mxPoint x="350" y="334.5" as="targetPoint" />
          </mxGeometry>
        </mxCell>
        <mxCell id="OoE9c814yCv3j-LPLBNH-59" value="&lt;font style=&quot;font-size: 12px;&quot;&gt;Instruction&lt;/font&gt;" style="text;html=1;strokeColor=none;fillColor=none;align=center;verticalAlign=middle;whiteSpace=wrap;rounded=0;" vertex="1" parent="1">
          <mxGeometry x="150" y="300" width="60" height="30" as="geometry" />
        </mxCell>
        <mxCell id="OoE9c814yCv3j-LPLBNH-65" style="edgeStyle=orthogonalEdgeStyle;rounded=0;orthogonalLoop=1;jettySize=auto;html=1;exitX=0.5;exitY=1;exitDx=0;exitDy=0;" edge="1" parent="1" source="OoE9c814yCv3j-LPLBNH-57" target="OoE9c814yCv3j-LPLBNH-57">
          <mxGeometry relative="1" as="geometry" />
        </mxCell>
        <mxCell id="OoE9c814yCv3j-LPLBNH-67" value="" style="endArrow=none;dashed=1;html=1;rounded=0;entryX=1;entryY=0;entryDx=0;entryDy=0;" edge="1" parent="1">
          <mxGeometry width="50" height="50" relative="1" as="geometry">
            <mxPoint x="218" y="335" as="sourcePoint" />
            <mxPoint x="218" y="294" as="targetPoint" />
          </mxGeometry>
        </mxCell>
        <mxCell id="OoE9c814yCv3j-LPLBNH-68" value="" style="endArrow=none;dashed=1;html=1;rounded=0;exitX=0.995;exitY=0.125;exitDx=0;exitDy=0;exitPerimeter=0;" edge="1" parent="1" source="OoE9c814yCv3j-LPLBNH-57">
          <mxGeometry width="50" height="50" relative="1" as="geometry">
            <mxPoint x="200" y="315" as="sourcePoint" />
            <mxPoint x="220" y="315" as="targetPoint" />
          </mxGeometry>
        </mxCell>
        <mxCell id="OoE9c814yCv3j-LPLBNH-69" value="&lt;span style=&quot;font-size: 8px;&quot;&gt;Handler&lt;/span&gt;" style="text;html=1;strokeColor=none;fillColor=none;align=center;verticalAlign=middle;whiteSpace=wrap;rounded=0;" vertex="1" parent="1">
          <mxGeometry x="248" y="290" width="60" height="30" as="geometry" />
        </mxCell>
        <mxCell id="OoE9c814yCv3j-LPLBNH-70" value="" style="endArrow=none;dashed=1;html=1;rounded=0;exitX=0;exitY=0.25;exitDx=0;exitDy=0;entryX=1;entryY=0.25;entryDx=0;entryDy=0;" edge="1" parent="1">
          <mxGeometry width="50" height="50" relative="1" as="geometry">
            <mxPoint x="139" y="374.5" as="sourcePoint" />
            <mxPoint x="350" y="374.5" as="targetPoint" />
          </mxGeometry>
        </mxCell>
        <mxCell id="OoE9c814yCv3j-LPLBNH-71" value="" style="endArrow=none;dashed=1;html=1;rounded=0;exitX=0;exitY=0.25;exitDx=0;exitDy=0;entryX=1;entryY=0.25;entryDx=0;entryDy=0;" edge="1" parent="1">
          <mxGeometry width="50" height="50" relative="1" as="geometry">
            <mxPoint x="139" y="415.5" as="sourcePoint" />
            <mxPoint x="350" y="415.5" as="targetPoint" />
          </mxGeometry>
        </mxCell>
        <mxCell id="OoE9c814yCv3j-LPLBNH-73" value="&lt;font style=&quot;font-size: 12px;&quot;&gt;Instruction&lt;/font&gt;" style="text;html=1;strokeColor=none;fillColor=none;align=center;verticalAlign=middle;whiteSpace=wrap;rounded=0;" vertex="1" parent="1">
          <mxGeometry x="150" y="338" width="60" height="30" as="geometry" />
        </mxCell>
        <mxCell id="OoE9c814yCv3j-LPLBNH-74" value="&lt;font style=&quot;font-size: 12px;&quot;&gt;Instruction&lt;/font&gt;" style="text;html=1;strokeColor=none;fillColor=none;align=center;verticalAlign=middle;whiteSpace=wrap;rounded=0;" vertex="1" parent="1">
          <mxGeometry x="150" y="379" width="60" height="30" as="geometry" />
        </mxCell>
        <mxCell id="OoE9c814yCv3j-LPLBNH-75" value="&lt;font style=&quot;font-size: 12px;&quot;&gt;Instruction&lt;/font&gt;" style="text;html=1;strokeColor=none;fillColor=none;align=center;verticalAlign=middle;whiteSpace=wrap;rounded=0;" vertex="1" parent="1">
          <mxGeometry x="150" y="420" width="60" height="30" as="geometry" />
        </mxCell>
        <mxCell id="OoE9c814yCv3j-LPLBNH-76" value="&lt;font style=&quot;font-size: 23px;&quot;&gt;Decode&lt;br&gt;&lt;br&gt;&lt;br&gt;&lt;/font&gt;" style="rounded=1;whiteSpace=wrap;html=1;fillColor=#dae8fc;strokeColor=#6c8ebf;" vertex="1" parent="1">
          <mxGeometry x="540" y="280" width="230" height="100" as="geometry" />
        </mxCell>
        <mxCell id="OoE9c814yCv3j-LPLBNH-77" value="decode_instruction" style="rounded=1;whiteSpace=wrap;html=1;fillColor=#e1d5e7;strokeColor=#9673a6;" vertex="1" parent="1">
          <mxGeometry x="560" y="330" width="190" height="29" as="geometry" />
        </mxCell>
        <mxCell id="OoE9c814yCv3j-LPLBNH-78" value="" style="curved=1;endArrow=classic;html=1;rounded=0;exitX=1;exitY=0.031;exitDx=0;exitDy=0;exitPerimeter=0;entryX=0;entryY=0.5;entryDx=0;entryDy=0;" edge="1" parent="1" source="OoE9c814yCv3j-LPLBNH-57" target="OoE9c814yCv3j-LPLBNH-77">
          <mxGeometry width="50" height="50" relative="1" as="geometry">
            <mxPoint x="420" y="450" as="sourcePoint" />
            <mxPoint x="470" y="400" as="targetPoint" />
            <Array as="points">
              <mxPoint x="470" y="280" />
            </Array>
          </mxGeometry>
        </mxCell>
        <mxCell id="OoE9c814yCv3j-LPLBNH-79" value="&lt;font style=&quot;font-size: 23px;&quot;&gt;Rv32i&lt;br&gt;&lt;br&gt;&lt;br&gt;&lt;/font&gt;" style="rounded=1;whiteSpace=wrap;html=1;fillColor=#dae8fc;strokeColor=#6c8ebf;" vertex="1" parent="1">
          <mxGeometry x="540" y="430" width="230" height="100" as="geometry" />
        </mxCell>
        <mxCell id="OoE9c814yCv3j-LPLBNH-80" value="add_exec" style="rounded=1;whiteSpace=wrap;html=1;fillColor=#e1d5e7;strokeColor=#9673a6;" vertex="1" parent="1">
          <mxGeometry x="560" y="480" width="190" height="29" as="geometry" />
        </mxCell>
        <mxCell id="OoE9c814yCv3j-LPLBNH-81" value="" style="curved=1;endArrow=classic;html=1;rounded=0;entryX=0;entryY=0.5;entryDx=0;entryDy=0;" edge="1" parent="1" target="OoE9c814yCv3j-LPLBNH-80">
          <mxGeometry width="50" height="50" relative="1" as="geometry">
            <mxPoint x="350" y="310" as="sourcePoint" />
            <mxPoint x="570" y="355" as="targetPoint" />
            <Array as="points">
              <mxPoint x="490" y="360" />
            </Array>
          </mxGeometry>
        </mxCell>
        <mxCell id="OoE9c814yCv3j-LPLBNH-84" value="Undecoded instruction" style="text;html=1;strokeColor=none;fillColor=none;align=center;verticalAlign=middle;whiteSpace=wrap;rounded=0;" vertex="1" parent="1">
          <mxGeometry x="400" y="260" width="90" height="30" as="geometry" />
        </mxCell>
        <mxCell id="OoE9c814yCv3j-LPLBNH-85" value="Decoded instruction" style="text;html=1;strokeColor=none;fillColor=none;align=center;verticalAlign=middle;whiteSpace=wrap;rounded=0;" vertex="1" parent="1">
          <mxGeometry x="390" y="379" width="90" height="30" as="geometry" />
        </mxCell>
      </root>
    </mxGraphModel>
  </diagram>
</mxfile>
